<svg xmlns="http://www.w3.org/2000/svg" xmlns:xlink="http://www.w3.org/1999/xlink" width="500" zoomAndPan="magnify" viewBox="0 0 375 374.999991" height="500" preserveAspectRatio="xMidYMid meet" version="1.0"><defs><clipPath id="5bf02e0909"><path d="M 153.164062 202.859375 L 345.957031 202.859375 L 345.957031 264.882812 L 153.164062 264.882812 Z M 153.164062 202.859375 " clip-rule="nonzero"/></clipPath><clipPath id="af5efaeac1"><path d="M 0.164062 0.859375 L 192.957031 0.859375 L 192.957031 62.882812 L 0.164062 62.882812 Z M 0.164062 0.859375 " clip-rule="nonzero"/></clipPath><clipPath id="11972c2e83"><rect x="0" width="193" y="0" height="63"/></clipPath><clipPath id="dd9acaac74"><path d="M 29.480469 110.117188 L 222.273438 110.117188 L 222.273438 172.140625 L 29.480469 172.140625 Z M 29.480469 110.117188 " clip-rule="nonzero"/></clipPath><clipPath id="9259a73c0e"><path d="M 0.480469 0.117188 L 193.273438 0.117188 L 193.273438 62.140625 L 0.480469 62.140625 Z M 0.480469 0.117188 " clip-rule="nonzero"/></clipPath><clipPath id="b5433767e5"><rect x="0" width="194" y="0" height="63"/></clipPath><clipPath id="7d12df575c"><path d="M 5.871094 110.066406 L 52.195312 110.066406 L 52.195312 172.132812 L 5.871094 172.132812 Z M 5.871094 110.066406 " clip-rule="nonzero"/></clipPath><clipPath id="7e42112ab4"><path d="M 29.03125 172.132812 L 5.871094 110.109375 L 52.195312 110.109375 Z M 29.03125 172.132812 " clip-rule="nonzero"/></clipPath><clipPath id="d1077c014c"><path d="M 0.871094 0.0664062 L 47.195312 0.0664062 L 47.195312 62.132812 L 0.871094 62.132812 Z M 0.871094 0.0664062 " clip-rule="nonzero"/></clipPath><clipPath id="e4cea431c7"><path d="M 24.03125 62.132812 L 0.871094 0.109375 L 47.195312 0.109375 Z M 24.03125 62.132812 " clip-rule="nonzero"/></clipPath><clipPath id="0cfe7974cb"><rect x="0" width="48" y="0" height="63"/></clipPath><clipPath id="aafdad52df"><path d="M 322.78125 202.804688 L 369.105469 202.804688 L 369.105469 264.875 L 322.78125 264.875 Z M 322.78125 202.804688 " clip-rule="nonzero"/></clipPath><clipPath id="8946944da5"><path d="M 345.945312 264.875 L 322.78125 202.851562 L 369.105469 202.851562 Z M 345.945312 264.875 " clip-rule="nonzero"/></clipPath><clipPath id="4b96b67275"><path d="M 0.78125 0.804688 L 47.105469 0.804688 L 47.105469 62.875 L 0.78125 62.875 Z M 0.78125 0.804688 " clip-rule="nonzero"/></clipPath><clipPath id="ad2deff361"><path d="M 23.945312 62.875 L 0.78125 0.851562 L 47.105469 0.851562 Z M 23.945312 62.875 " clip-rule="nonzero"/></clipPath><clipPath id="5dc0ae91f9"><rect x="0" width="48" y="0" height="63"/></clipPath></defs><g clip-path="url(#5bf02e0909)"><g transform="matrix(1, 0, 0, 1, 153, 202)"><g clip-path="url(#11972c2e83)"><g clip-path="url(#af5efaeac1)"><path fill="#6286f7" d="M 0.164062 0.859375 L 193.019531 0.859375 L 193.019531 62.882812 L 0.164062 62.882812 Z M 0.164062 0.859375 " fill-opacity="1" fill-rule="nonzero"/></g></g></g></g><g clip-path="url(#dd9acaac74)"><g transform="matrix(1, 0, 0, 1, 29, 110)"><g clip-path="url(#b5433767e5)"><g clip-path="url(#9259a73c0e)"><path fill="#ea5850" d="M 0.480469 0.117188 L 193.332031 0.117188 L 193.332031 62.140625 L 0.480469 62.140625 Z M 0.480469 0.117188 " fill-opacity="1" fill-rule="nonzero"/></g></g></g></g><g clip-path="url(#7d12df575c)"><g clip-path="url(#7e42112ab4)"><g transform="matrix(1, 0, 0, 1, 5, 110)"><g clip-path="url(#0cfe7974cb)"><g clip-path="url(#d1077c014c)"><g clip-path="url(#e4cea431c7)"><path fill="#ea5850" d="M 47.195312 62.132812 L 0.871094 62.132812 L 0.871094 0.0664062 L 47.195312 0.0664062 Z M 47.195312 62.132812 " fill-opacity="1" fill-rule="nonzero"/></g></g></g></g></g></g><g clip-path="url(#aafdad52df)"><g clip-path="url(#8946944da5)"><g transform="matrix(1, 0, 0, 1, 322, 202)"><g clip-path="url(#5dc0ae91f9)"><g clip-path="url(#4b96b67275)"><g clip-path="url(#ad2deff361)"><path fill="#6286f7" d="M 47.105469 62.875 L 0.78125 62.875 L 0.78125 0.804688 L 47.105469 0.804688 Z M 47.105469 62.875 " fill-opacity="1" fill-rule="nonzero"/></g></g></g></g></g></g></svg>